<?xml version="1.0" encoding="utf-8"?>
<!-- Generator: Adobe Illustrator 16.2.1, SVG Export Plug-In . SVG Version: 6.00 Build 0)  -->
<!DOCTYPE svg PUBLIC "-//W3C//DTD SVG 1.1//EN" "http://www.w3.org/Graphics/SVG/1.1/DTD/svg11.dtd">
<svg version="1.1" xmlns="http://www.w3.org/2000/svg" xmlns:xlink="http://www.w3.org/1999/xlink" x="0px" y="0px" width="400px"
	 height="50px" viewBox="0 0 400 50" style="enable-background:new 0 0 400 50;" xml:space="preserve">
<style type="text/css">
<![CDATA[
	.st0{fill:#0069B4;}
]]>
</style>
<g id="Hilfslinien">
</g>
<g id="Unterzeile_FG">
</g>
<g id="Typo_oben_edit">
	<path class="st0" d="M0,5.472h1.65l13.529,19.649h0.06V5.472h1.32v21.419h-1.56L1.38,7.092H1.32v19.799H0V5.472z M29.579,27.4
		c-6.419,0-10.199-4.949-10.199-11.219c0-6.271,3.78-11.221,10.199-11.221c6.39,0,10.17,4.95,10.17,11.221
		C39.749,22.451,35.969,27.4,29.579,27.4z M29.579,26.261c5.58,0,8.85-4.59,8.85-10.079c0-5.49-3.27-10.08-8.85-10.08
		c-5.609,0-8.879,4.59-8.879,10.08C20.7,21.671,23.97,26.261,29.579,26.261z M42.57,5.472h8.939c3.75,0,6.78,1.38,6.78,5.52
		c0,2.88-1.74,5.01-4.59,5.489v0.061c3.18,0.359,3.96,2.37,4.17,4.59s-0.15,4.619,0.72,5.76h-1.47c-0.81-1.47-0.33-3.93-0.57-6
		c-0.27-2.07-1.29-3.75-5.04-3.75h-7.62v9.75h-1.32V5.472z M51.509,16.001c3.12,0,5.46-1.47,5.46-4.92c0-3.239-2.58-4.47-5.46-4.47
		h-7.62v9.39H51.509z M61.469,5.472h1.89l8.37,19.949h0.06l8.28-19.949h1.89v21.419h-1.32V7.092h-0.06l-8.16,19.799h-1.32
		l-8.25-19.799h-0.06v19.799h-1.32V5.472z M100.289,25.75v1.141H85.739V5.472h14.399v1.14h-13.08v8.58h12.299v1.14H87.059v9.419
		H100.289z M102.539,5.472h1.65l13.529,19.649h0.06V5.472h1.32v21.419h-1.56L103.919,7.092h-0.06v19.799h-1.32V5.472z
		 M124.378,26.891v-3.09h1.53v3.09H124.378z M138.992,5.472h1.89l8.37,19.949h0.06l8.28-19.949h1.89v21.419h-1.32V7.092h-0.06
		l-8.16,19.799h-1.32l-8.25-19.799h-0.06v19.799h-1.32V5.472z M171.061,5.472l8.46,21.419h-1.41l-2.7-6.869h-10.26l-2.73,6.869
		h-1.41l8.609-21.419H171.061z M174.991,18.881l-4.59-12.119h-0.06l-4.77,12.119H174.991z M197.164,11.861
		c-0.57-3.6-3.72-5.76-7.29-5.76c-5.61,0-8.88,4.59-8.88,10.08c0,5.489,3.27,10.079,8.88,10.079c4.169,0,7.41-3.72,7.649-7.71h1.32
		c-0.48,5.1-4.26,8.85-8.97,8.85c-6.42,0-10.2-4.949-10.2-11.219c0-6.271,3.78-11.221,10.2-11.221c7.589,0,8.58,6.6,8.609,6.9
		H197.164z M202.923,16.331v10.56h-1.32V5.472h1.32v9.72h13.68v-9.72h1.32v21.419h-1.32v-10.56H202.923z M236.253,25.75v1.141
		h-14.55V5.472h14.399v1.14h-13.08v8.58h12.3v1.14h-12.3v9.419H236.253z M238.503,5.472h1.65l13.528,19.649h0.061V5.472h1.32v21.419
		h-1.561L239.883,7.092h-0.06v19.799h-1.32V5.472z M260.343,26.891v-3.09h1.53v3.09H260.343z M274.473,5.472h15.029v1.14
		l-14.52,19.139h14.79v1.141h-16.17V25.75l14.46-19.139h-13.59V5.472z M292.952,5.472v12.839c0,2.58,0.54,7.95,6.72,7.95
		c5.25,0,7.02-3.09,7.02-7.95V5.472h1.32v12.839c0,5.1-1.92,9.09-8.34,9.09c-7.62,0-8.04-6.24-8.04-9.09V5.472H292.952z
		 M311.225,5.472h1.32v12.329l13.47-12.329h1.71l-9.78,8.909l10.38,12.51h-1.65l-9.689-11.609l-4.439,4.05v7.56h-1.32V5.472z
		 M330.935,5.472v12.839c0,2.58,0.54,7.95,6.72,7.95c5.25,0,7.02-3.09,7.02-7.95V5.472h1.32v12.839c0,5.1-1.92,9.09-8.34,9.09
		c-7.62,0-8.04-6.24-8.04-9.09V5.472H330.935z M349.207,5.472h1.65l13.529,19.649h0.06V5.472h1.32v21.419h-1.56l-13.62-19.799h-0.06
		v19.799h-1.32V5.472z M369.495,16.331v10.56h-1.32V5.472h13.439v1.14h-12.119v8.58h10.92v1.14H369.495z M382.456,6.611v-1.14
		h16.409v1.14h-7.56v20.279h-1.32V6.611H382.456z M398.47,26.891v-3.09H400v3.09H398.47z"/>
</g>
</svg>
